<svg width="24" height="22" viewBox="0 0 24 22" fill="none" xmlns="http://www.w3.org/2000/svg">
<path d="M22 5.00001V3.00001H7.39L9.39 5.00001H22ZM24 18V8.00001C24 7.45001 23.55 7.00001 23 7.00001H17C16.45 7.00001 16 7.45001 16 8.00001V11.61L18 13.61V9.00001H22V16H20.39L23.32 18.93C23.71 18.8 24 18.44 24 18ZM2.06 0.51001L0.65 1.92001L2.47 3.74001C2.18 4.08001 2 4.52001 2 5.00001V16H0V19H17.73L20.08 21.35L21.49 19.94L2.06 0.51001ZM4 16V5.27001L14.73 16H4Z" fill="white" fill-opacity="0.8"/>
</svg>
